<svg fill="none" xmlns="http://www.w3.org/2000/svg" viewBox="0 0 25 25">
  <path fill-rule="evenodd" clip-rule="evenodd" d="M9.297 1.414c-1.713.775-3.114 1.432-3.113 1.459 0 .069 4.11 1.878 4.256 1.874.066-.002.547-.195 1.07-.428l.948-.425 1.036.464 1.037.463 1.697-.663c2.557-1 2.823-1.11 2.781-1.146-.055-.049-.972-.477-3.46-1.617-1.204-.55-2.37-1.09-2.595-1.2-.224-.109-.438-.197-.475-.195-.038.002-1.47.638-3.182 1.414ZM1.786 4.796l-1.783.801v3.515c0 1.933.024 3.514.052 3.514.029 0 .906-.33 1.95-.735l1.896-.734V7.452l.927.44 2.145 1.012 1.217.573.542-.213c.34-.134.678-.27 1.017-.406.261-.105.903-.357 1.426-.558.523-.202 1.007-.405 1.075-.45.091-.062-1.02-.596-4.112-1.977-2.33-1.04-4.312-1.89-4.403-1.885-.092.004-.969.368-1.95.808Zm17.545.225c-1.215.477-2.209.886-2.21.91 0 .022.66.365 1.47.76.81.394 1.473.738 1.473.764 0 .026-.716.328-1.592.672-.876.343-3.09 1.212-4.92 1.932l-6.133 2.41-3.09 1.216C1.18 14.925.312 15.268.193 15.328c-.12.06-.146.405-.168 2.14L0 19.537l1.594.706 1.594.706 2.21-.867c1.217-.477 2.211-.893 2.211-.923 0-.03-.224-.158-.499-.283a39.757 39.757 0 0 1-1.26-.616c-.418-.214-.835-.41-.927-.436-.091-.026-.165-.071-.163-.101.001-.03.975-.432 2.163-.894 2.307-.897 4.073-1.588 7.865-3.08l5.086-1.998c1.49-.585 3.223-1.268 3.85-1.518l1.142-.455.025-2.092.026-2.092-1.617-.722c-.89-.397-1.65-.72-1.69-.72-.04.001-1.065.392-2.28.869Zm5.102 7.548c-.239.101-.71.291-1.046.421-.337.13-.977.382-1.421.558l-.808.32-.019 1.837c-.01 1.01-.053 1.833-.095 1.827-.096-.012-1.61-.688-3.133-1.397-1.099-.512-1.168-.532-1.426-.421-.15.064-1.041.412-1.983.773-.94.361-1.742.68-1.78.71-.037.028 1.857.921 4.21 1.984l4.279 1.932 1.827-.822c1.005-.453 1.86-.865 1.9-.917.088-.116.08-7.005-.008-6.995-.035.003-.26.089-.497.19Zm-10.12 8.085-.952.356c-.956.36-.769.372-1.907-.12-.758-.329-1.085-.43-1.227-.38-.106.036-1.022.394-2.035.795-1.013.401-1.877.73-1.92.73-.425 0 .282.367 3.008 1.563L12.477 25l1.346-.578c.74-.317 2.232-.953 3.316-1.413 1.084-.46 1.958-.848 1.941-.863-.016-.015-.925-.42-2.018-.901l-1.99-.875-.76.284Z" fill="#fff"/>
</svg>
