<svg fill="none" xmlns="http://www.w3.org/2000/svg" viewBox="0 0 72 72">
  <g clip-path="url(#a)">
    <path fill-rule="evenodd" clip-rule="evenodd" d="M26.747 4.109c-4.927 2.232-8.957 4.12-8.956 4.197.002.199 11.824 5.405 12.244 5.392.19-.005 1.575-.56 3.077-1.231l2.73-1.221 2.982 1.332 2.981 1.334 4.883-1.908c7.358-2.876 8.122-3.19 8.002-3.296-.159-.14-2.798-1.374-9.957-4.652-3.46-1.584-6.82-3.137-7.464-3.451-.645-.315-1.26-.568-1.368-.563-.107.005-4.227 1.835-9.154 4.067Zm-21.609 9.73L.01 16.145v10.11c0 5.561.068 10.111.15 10.111.082 0 2.606-.951 5.608-2.114l5.457-2.113V21.48l2.667 1.264c2.055.972 4.112 1.943 6.17 2.912l3.501 1.649 1.559-.613c.977-.385 1.952-.773 2.926-1.166.752-.305 2.598-1.028 4.103-1.607 1.504-.58 2.897-1.163 3.094-1.296.263-.177-2.936-1.714-11.83-5.686-6.705-2.994-12.406-5.434-12.669-5.422-.263.012-2.786 1.058-5.607 2.325Zm50.477.648c-3.493 1.371-6.354 2.548-6.357 2.615-.003.067 1.9 1.051 4.23 2.187 2.331 1.136 4.237 2.127 4.237 2.201 0 .075-2.061.943-4.581 1.931-2.52.988-8.89 3.49-14.156 5.56l-17.643 6.934-8.89 3.495C3.39 42.98.898 43.97.556 44.14c-.344.17-.422 1.165-.483 6.155L0 56.245l4.586 2.033 4.587 2.032 6.36-2.496c3.497-1.373 6.36-2.568 6.36-2.656 0-.088-.647-.454-1.437-.814-.79-.36-2.42-1.158-3.624-1.772-1.204-.615-2.404-1.179-2.667-1.254-.264-.074-.475-.205-.471-.29.004-.085 2.805-1.242 6.223-2.57 6.639-2.582 11.72-4.572 22.627-8.861 4.878-1.918 9.756-3.834 14.634-5.75 4.288-1.682 9.273-3.648 11.079-4.367l3.282-1.308.073-6.02.073-6.018-4.651-2.077c-2.559-1.142-4.746-2.073-4.86-2.07-.115.004-3.067 1.128-6.56 2.5Zm14.678 21.715c-.686.29-2.04.836-3.009 1.211a626.79 626.79 0 0 0-4.088 1.604l-2.325.922-.053 5.285c-.03 2.906-.152 5.27-.273 5.256-.276-.036-4.633-1.98-9.014-4.02-3.161-1.474-3.36-1.532-4.103-1.212-.43.185-2.996 1.186-5.704 2.225-2.708 1.039-5.012 1.957-5.12 2.04-.109.083 5.341 2.651 12.111 5.709l12.309 5.558 5.257-2.366c2.892-1.3 5.35-2.487 5.464-2.636.255-.336.233-20.152-.022-20.125-.101.01-.745.257-1.43.549ZM41.177 59.46c-.913.34-1.824.682-2.736 1.024-2.753 1.036-2.213 1.07-5.488-.347-2.181-.945-3.121-1.236-3.53-1.094-.305.106-2.94 1.136-5.854 2.29-2.914 1.153-5.4 2.097-5.523 2.097-1.223 0 .81 1.056 8.653 4.497l9.199 4.035 3.87-1.662c2.129-.914 6.422-2.744 9.541-4.067 3.12-1.323 5.633-2.44 5.585-2.482-.047-.042-2.66-1.209-5.807-2.593l-5.722-2.517-2.188.819Z" fill="#0C0B56"/>
  </g>
  <defs>
    <clipPath id="a">
      <path fill="#fff" d="M0 0h72v72H0z"/>
    </clipPath>
  </defs>
</svg>
