<svg fill="none" xmlns="http://www.w3.org/2000/svg" viewBox="0 0 76 76">
  <g clip-path="url(#a)" fill="#0C0B56">
    <path d="M15.795 36.185a3.224 3.224 0 0 1 3.236-3.223l5.365.018a3.225 3.225 0 0 1 3.225 3.227v20.292c.604-.179 1.38-.37 2.229-.569a2.688 2.688 0 0 0 2.071-2.616V28.142a3.23 3.23 0 0 1 1.992-2.981c.39-.163.81-.246 1.234-.246h5.375a3.225 3.225 0 0 1 3.225 3.226v23.364s1.346-.545 2.657-1.099a2.692 2.692 0 0 0 1.643-2.478V20.075a3.227 3.227 0 0 1 3.226-3.227h5.375a3.225 3.225 0 0 1 3.225 3.227V43.01c4.66-3.378 9.384-7.442 13.132-12.328a5.415 5.415 0 0 0 .824-5.056 37.938 37.938 0 0 0-13.62-18.41A37.917 37.917 0 0 0 38.478.004C17.41-.28-.001 16.925 0 38.003a37.89 37.89 0 0 0 5.045 19.008 4.802 4.802 0 0 0 4.581 2.374c1.017-.09 2.283-.216 3.788-.392a2.686 2.686 0 0 0 2.383-2.668v-20.14M15.678 68.73a37.972 37.972 0 0 0 54.725-10.87A38.002 38.002 0 0 0 76 38c0-.875-.04-1.74-.099-2.6-13.877 20.703-39.5 30.382-60.223 33.33"/>
  </g>
  <defs>
    <clipPath id="a">
      <path fill="#fff" d="M0 0h76v76H0z"/>
    </clipPath>
  </defs>
</svg>
