<svg fill="none" xmlns="http://www.w3.org/2000/svg" viewBox="0 0 25 25">
  <path d="M5.196 11.903a1.06 1.06 0 0 1 1.064-1.06l1.765.006a1.061 1.061 0 0 1 1.06 1.061v6.675c.2-.059.455-.121.734-.187a.884.884 0 0 0 .681-.86v-8.28a1.06 1.06 0 0 1 1.061-1.062h1.769a1.061 1.061 0 0 1 1.06 1.061v7.685s.443-.179.874-.361a.886.886 0 0 0 .541-.815V6.604a1.062 1.062 0 0 1 1.061-1.062h1.768a1.061 1.061 0 0 1 1.061 1.062v7.544c1.533-1.111 3.087-2.448 4.32-4.055a1.782 1.782 0 0 0 .27-1.664A12.48 12.48 0 0 0 12.658.001C5.727-.092 0 5.567 0 12.501a12.464 12.464 0 0 0 1.66 6.253 1.58 1.58 0 0 0 1.506.78c.335-.029.751-.07 1.246-.129a.883.883 0 0 0 .784-.877v-6.625M5.157 22.609a12.49 12.49 0 0 0 18.002-3.576A12.5 12.5 0 0 0 25 12.5c0-.287-.013-.572-.033-.855-4.564 6.81-12.993 9.994-19.81 10.964" fill="#fff"/>
</svg>
