<svg fill="none" xmlns="http://www.w3.org/2000/svg" viewBox="0 0 72 72">
  <path d="m17.1 40.257 7.395 20.797S25.42 63 26.41 63s15.715-15.565 15.715-15.565L58.5 15.3 17.364 34.889l-.264 5.368Z" fill="#5754DB"/>
  <path d="m26.689 45.9-1.463 15.05s-.613 4.612 4.15 0c4.764-4.611 9.324-8.167 9.324-8.167" fill="#2724C9"/>
  <path d="M16.817 41.15 1.37 36.092s-1.847-.753-1.252-2.46c.122-.351.37-.651 1.108-1.166C4.648 30.07 64.577 8.423 64.577 8.423s1.693-.573 2.69-.192a1.458 1.458 0 0 1 .995 1.09c.108.447.153.909.134 1.37-.005.398-.053.767-.09 1.347-.364 5.918-11.287 50.087-11.287 50.087s-.654 2.584-2.995 2.673a4.272 4.272 0 0 1-3.125-1.215c-4.595-3.972-20.476-14.697-23.985-17.056a.672.672 0 0 1-.288-.477c-.05-.248.22-.556.22-.556S54.499 20.793 55.234 18.2c.057-.201-.158-.3-.447-.212-1.837.679-33.675 20.884-37.19 23.114-.252.077-.52.093-.78.048Z" fill="#0C0B56"/>
</svg>
