<svg fill="none" xmlns="http://www.w3.org/2000/svg" viewBox="0 0 32 25">
  <path d="M7.868 14.572.64 12.342s-.864-.332-.586-1.084c.057-.155.173-.288.518-.514C2.175 9.685 30.212.141 30.212.141s.791-.252 1.258-.084c.116.034.22.096.301.18a.636.636 0 0 1 .164.3c.05.198.072.4.063.604-.002.176-.025.339-.042.594-.17 2.61-5.28 22.084-5.28 22.084S26.37 24.96 25.273 25a2.106 2.106 0 0 1-.788-.127 2.021 2.021 0 0 1-.674-.409c-2.15-1.75-9.579-6.48-11.22-7.52a.304.304 0 0 1-.092-.091.285.285 0 0 1-.043-.12c-.024-.109.102-.245.102-.245S25.496 5.597 25.841 4.453c.026-.088-.074-.132-.21-.093-.859.299-15.754 9.208-17.398 10.191a.836.836 0 0 1-.365.021Z" fill="#fff"/>
</svg>
