<svg fill="none" xmlns="http://www.w3.org/2000/svg" viewBox="0 0 30 25">
  <path d="M9.435 25c11.321 0 17.512-9.617 17.512-17.957 0-.273-.005-.545-.017-.816 1.204-.894 2.244-2 3.07-3.268-1.103.503-2.29.841-3.535.994a6.308 6.308 0 0 0 2.707-3.49 12.16 12.16 0 0 1-3.908 1.531A6.078 6.078 0 0 0 20.77 0c-3.4 0-6.156 2.826-6.156 6.31 0 .496.054.977.16 1.44C9.66 7.484 5.123 4.973 2.088 1.154a6.417 6.417 0 0 0-.834 3.172 6.35 6.35 0 0 0 2.74 5.254 5.995 5.995 0 0 1-2.788-.79l-.001.081c0 3.057 2.121 5.609 4.938 6.187a6.021 6.021 0 0 1-2.78.108c.784 2.508 3.056 4.333 5.75 4.384A12.156 12.156 0 0 1 0 22.165 17.111 17.111 0 0 0 9.435 25" fill="#fff"/>
</svg>
