<svg fill="none" xmlns="http://www.w3.org/2000/svg" viewBox="0 0 98 66">
  <path d="M37.444 66c27.427 0 42.425-22.726 42.425-42.433 0-.645-.013-1.288-.042-1.927a30.326 30.326 0 0 0 7.438-7.723 29.722 29.722 0 0 1-8.563 2.348 14.967 14.967 0 0 0 6.557-8.249 29.905 29.905 0 0 1-9.468 3.62 14.892 14.892 0 0 0-10.885-4.712c-8.234 0-14.911 6.68-14.911 14.912 0 1.17.13 2.308.387 3.4C37.989 24.613 27 18.678 19.645 9.654a14.876 14.876 0 0 0-2.019 7.496c0 5.175 2.633 9.742 6.636 12.414a14.799 14.799 0 0 1-6.753-1.865c-.003.063-.003.124-.003.19 0 7.223 5.14 13.253 11.963 14.62a14.928 14.928 0 0 1-6.734.256c1.898 5.925 7.403 10.237 13.929 10.358a29.91 29.91 0 0 1-18.52 6.384 30.285 30.285 0 0 1-3.556-.207 42.203 42.203 0 0 0 22.857 6.699" fill="#0C0B56"/>
</svg>
