<svg fill="none" xmlns="http://www.w3.org/2000/svg" viewBox="0 0 22 25">
  <path d="M8.626 5.686c-.275-.039-.288-.052-.157-.065.248-.038.823.013 1.228.104.941.219 1.79.786 2.692 1.779l.235.27.34-.051c1.45-.232 2.94-.052 4.182.516.34.154.875.464.94.541.027.026.066.194.092.361.092.606.053 1.057-.143 1.406-.105.193-.105.245-.04.412.053.13.21.22.353.22.314 0 .64-.49.797-1.174l.066-.27.117.128c.667.735 1.19 1.754 1.268 2.476l.026.193-.118-.167a2.189 2.189 0 0 0-.627-.658c-.444-.296-.915-.387-2.156-.451-1.124-.065-1.764-.155-2.392-.361-1.071-.348-1.62-.8-2.888-2.463-.562-.735-.914-1.134-1.267-1.47-.771-.735-1.542-1.121-2.548-1.276Z" fill="#fff"/>
  <path d="M18.361 7.323c.026-.49.092-.812.235-1.109.053-.116.105-.219.118-.219.013 0-.013.09-.052.194-.105.283-.118.683-.052 1.134.091.58.13.658.758 1.29.287.296.627.67.758.825l.222.283-.223-.206c-.274-.258-.901-.748-1.045-.812-.091-.052-.104-.052-.17.013-.052.051-.065.129-.065.502-.013.58-.092.942-.288 1.316-.104.193-.117.154-.026-.065.066-.167.079-.245.079-.8 0-1.121-.131-1.392-.928-1.843a9.805 9.805 0 0 0-.732-.374 2.903 2.903 0 0 1-.353-.168c.026-.025.797.194 1.098.323.457.18.536.193.588.18.04-.038.065-.142.078-.464ZM9.161 9.244c-.548-.747-.901-1.908-.823-2.772l.026-.27.13.025c.236.04.641.194.837.31.523.31.758.735.98 1.792.066.31.157.67.196.787.066.193.314.644.523.928.144.206.052.31-.274.284-.497-.052-1.163-.503-1.595-1.084ZM17.695 14.853c-2.588-1.031-3.502-1.92-3.502-3.43 0-.219.013-.4.013-.4.013 0 .104.078.222.168.522.413 1.11.594 2.744.826.954.142 1.503.245 2 .412 1.58.516 2.56 1.573 2.796 3.004.065.413.026 1.2-.078 1.612-.092.322-.353.915-.419.928-.013 0-.039-.064-.039-.167-.026-.542-.3-1.058-.758-1.457-.549-.464-1.254-.812-2.98-1.496ZM15.865 15.278a3.025 3.025 0 0 0-.13-.541l-.066-.194.118.142c.17.194.3.426.418.748.092.245.092.322.092.722 0 .387-.014.477-.092.696a2.33 2.33 0 0 1-.549.864c-.47.477-1.085.735-1.96.851-.157.013-.601.052-.993.078-.98.051-1.634.154-2.222.36-.078.026-.157.052-.17.04-.026-.027.38-.259.706-.413.457-.22.928-.336 1.96-.516.51-.077 1.033-.18 1.163-.232 1.294-.4 1.934-1.393 1.725-2.605Z" fill="#fff"/>
  <path d="M17.055 17.354c-.34-.735-.419-1.43-.236-2.088.026-.065.053-.13.079-.13.026 0 .104.04.183.091.156.103.483.284 1.32.735 1.058.567 1.66 1.006 2.077 1.508.366.439.588.942.693 1.56.065.349.026 1.187-.065 1.535-.288 1.096-.941 1.972-1.895 2.475a1.83 1.83 0 0 1-.275.13c-.013 0 .04-.13.118-.284.314-.658.353-1.29.118-1.999-.144-.438-.445-.967-1.046-1.857-.719-1.031-.889-1.302-1.072-1.676ZM7.319 21.3c.967-.8 2.156-1.367 3.254-1.548.47-.077 1.254-.051 1.685.065.693.18 1.32.567 1.647 1.044.314.464.458.864.601 1.753.053.349.118.71.13.787.105.464.315.825.576 1.019.405.296 1.11.309 1.803.051.118-.038.222-.077.222-.064.027.026-.326.258-.561.374a1.87 1.87 0 0 1-.941.219c-.628 0-1.163-.323-1.595-.967-.091-.13-.274-.503-.43-.851-.458-1.044-.694-1.354-1.23-1.702-.47-.297-1.07-.361-1.528-.142-.601.284-.758 1.044-.34 1.509.17.193.483.348.745.386a.793.793 0 0 0 .902-.786c0-.31-.118-.49-.432-.632-.418-.18-.875.026-.862.426 0 .167.078.27.248.348.105.051.105.051.026.038-.379-.077-.47-.541-.17-.838.366-.36 1.137-.206 1.399.297.104.206.117.619.026.877-.222.567-.85.863-1.49.696-.431-.116-.614-.232-1.137-.76-.915-.93-1.268-1.11-2.574-1.303l-.249-.039.275-.258Z" fill="#fff"/>
  <path fill-rule="evenodd" clip-rule="evenodd" d="M.445.554c3.045 3.65 7.736 9.322 7.971 9.632.196.258.118.502-.209.683a2.021 2.021 0 0 1-.745.206.95.95 0 0 1-.627-.27c-.117-.117-.627-.851-1.777-2.618A167.099 167.099 0 0 0 3.424 5.7c-.052-.026-.052-.026 1.542 2.785C5.973 10.25 6.3 10.882 6.3 10.959c0 .168-.052.258-.261.49-.353.387-.51.825-.627 1.74-.13 1.02-.484 1.741-1.49 2.966-.588.722-.68.851-.823 1.148-.183.36-.236.567-.262 1.031-.026.49.026.8.17 1.264.13.412.275.683.628 1.212.3.464.483.812.483.94 0 .104.026.104.497 0 1.123-.257 2.051-.695 2.561-1.237.314-.335.392-.516.392-.98 0-.296-.013-.36-.091-.541-.131-.284-.38-.516-.915-.877-.706-.477-1.006-.864-1.085-1.38-.065-.438.013-.735.405-1.547.405-.838.51-1.186.575-2.037.04-.541.105-.76.262-.928.17-.18.313-.245.718-.297.667-.09 1.098-.258 1.438-.58.3-.27.431-.541.444-.941l.013-.297-.17-.18C8.547 9.232.04 0 .001 0c-.013 0 .196.245.444.554ZM4.457 18.89a.528.528 0 0 0-.17-.71c-.222-.141-.562-.077-.562.117 0 .051.026.103.105.128.117.065.13.13.039.271-.092.142-.092.27.026.361.183.142.431.065.562-.167ZM9.75 12.107c-.314.09-.615.425-.706.76-.053.207-.026.58.065.697.144.18.275.232.64.232.72 0 1.333-.31 1.399-.684.065-.31-.21-.735-.588-.928-.196-.103-.601-.142-.81-.077Zm.836.644c.104-.154.065-.322-.13-.438-.354-.22-.89-.039-.89.296 0 .168.275.349.536.349.17 0 .405-.104.484-.207Z" fill="#fff"/>
</svg>
