<svg fill="none" xmlns="http://www.w3.org/2000/svg" viewBox="0 0 84 84">
  <g clip-path="url(#a)" fill="#0C0B56">
    <path d="M32.941 19.115c-1.048-.13-1.098-.174-.599-.217.949-.13 3.145.043 4.692.347 3.593.736 6.838 2.644 10.282 5.981l.898.91 1.298-.173c5.54-.78 11.23-.173 15.971 1.734 1.298.52 3.344 1.56 3.594 1.82.1.087.25.65.349 1.214.35 2.037.2 3.554-.549 4.724-.4.65-.4.824-.15 1.387.2.434.799.737 1.348.737 1.198 0 2.445-1.647 3.044-3.944l.25-.91.45.433c2.545 2.47 4.541 5.895 4.84 8.322l.1.65-.449-.563c-.749-.997-1.447-1.647-2.395-2.21-1.698-.998-3.494-1.301-8.236-1.518-4.292-.217-6.738-.52-9.134-1.213-4.092-1.17-6.189-2.688-11.03-8.28-2.146-2.47-3.494-3.813-4.841-4.94-2.945-2.47-5.89-3.771-9.733-4.291Z"/>
    <path d="M70.125 24.62c.1-1.648.35-2.732.898-3.728.2-.39.4-.737.45-.737.05 0-.05.303-.2.65-.4.954-.45 2.297-.2 3.814.35 1.95.5 2.21 2.895 4.334a74.977 74.977 0 0 1 2.895 2.774l.848.954-.848-.693c-1.048-.867-3.444-2.514-3.993-2.731-.35-.173-.4-.173-.649.043-.2.174-.25.434-.25 1.69-.05 1.951-.349 3.165-1.098 4.422-.399.65-.449.52-.1-.217.25-.563.3-.824.3-2.687 0-3.771-.499-4.681-3.544-6.198-.748-.39-2.046-.954-2.795-1.257-.798-.304-1.397-.564-1.347-.564.1-.087 3.044.65 4.192 1.084 1.747.607 2.047.65 2.246.607.15-.13.25-.477.3-1.56ZM34.987 31.078c-2.096-2.514-3.443-6.415-3.144-9.32l.1-.91.499.087c.898.13 2.446.65 3.194 1.04 1.997 1.04 2.895 2.47 3.744 6.025.25 1.04.599 2.254.748 2.644.25.65 1.198 2.167 1.997 3.12.549.694.2 1.041-1.048.954-1.897-.173-4.442-1.69-6.09-3.64ZM67.58 49.932c-9.883-3.468-13.377-6.458-13.377-11.53 0-.736.05-1.343.05-1.343.05 0 .4.26.849.563 1.996 1.387 4.242 1.994 10.48 2.774 3.644.477 5.74.824 7.637 1.387 6.04 1.734 9.783 5.288 10.681 10.1.25 1.386.1 4.03-.3 5.417-.349 1.084-1.347 3.078-1.596 3.121-.05 0-.15-.217-.15-.563-.1-1.82-1.148-3.555-2.895-4.898-2.096-1.56-4.791-2.73-11.38-5.028ZM60.592 51.362c-.1-.65-.35-1.474-.5-1.82l-.249-.65.45.476c.648.65 1.147 1.43 1.596 2.514.35.824.35 1.084.35 2.428 0 1.3-.05 1.603-.35 2.34-.499 1.17-1.098 1.994-2.096 2.904-1.797 1.604-4.142 2.47-7.486 2.86-.6.044-2.296.174-3.794.26-3.743.174-6.238.521-8.484 1.215-.3.086-.6.173-.65.13-.1-.087 1.448-.867 2.696-1.388 1.747-.736 3.543-1.126 7.486-1.733 1.947-.26 3.943-.607 4.443-.78 4.94-1.344 7.386-4.681 6.588-8.756Z"/>
    <path d="M65.134 58.34c-1.298-2.47-1.597-4.81-.899-7.021.1-.217.2-.434.3-.434.1 0 .4.13.699.304.599.347 1.846.953 5.04 2.47 4.043 1.908 6.34 3.381 7.936 5.072 1.398 1.473 2.246 3.164 2.646 5.244.25 1.17.1 3.988-.25 5.158-1.098 3.684-3.593 6.632-7.237 8.322-.549.26-.998.434-1.048.434-.05 0 .15-.434.45-.954 1.197-2.21 1.347-4.334.448-6.718-.549-1.474-1.697-3.251-3.993-6.242-2.745-3.467-3.394-4.377-4.092-5.634ZM27.95 71.604c3.694-2.688 8.235-4.595 12.428-5.201 1.797-.26 4.791-.174 6.438.216 2.646.607 5.041 1.907 6.29 3.511 1.197 1.56 1.746 2.904 2.295 5.895.2 1.17.45 2.384.5 2.644.398 1.56 1.197 2.774 2.195 3.424 1.548.997 4.243 1.04 6.888.173.45-.13.849-.26.849-.216.1.086-1.248.867-2.147 1.257-1.248.563-2.246.736-3.593.736-2.396 0-4.442-1.083-6.09-3.25-.349-.434-1.047-1.69-1.647-2.861-1.746-3.51-2.645-4.551-4.691-5.721-1.797-.997-4.093-1.214-5.84-.477-2.296.953-2.895 3.51-1.297 5.071.648.65 1.846 1.17 2.845 1.3 1.846.217 3.443-1.04 3.443-2.644 0-1.04-.449-1.647-1.647-2.123-1.597-.607-3.344.086-3.294 1.43 0 .563.3.91.949 1.17.399.174.399.174.1.13-1.448-.26-1.797-1.82-.65-2.817 1.398-1.214 4.343-.694 5.341.997.4.693.45 2.08.1 2.947-.849 1.907-3.244 2.904-5.69 2.34-1.647-.39-2.346-.78-4.342-2.557-3.494-3.12-4.842-3.727-9.833-4.377l-.948-.13 1.048-.867Z"/>
    <path fill-rule="evenodd" clip-rule="evenodd" d="M1.697 1.864C13.326 14.13 31.244 33.2 32.142 34.242c.749.866.45 1.69-.798 2.297-.699.346-2.146.693-2.845.693-.799 0-1.747-.346-2.396-.91-.449-.39-2.396-2.86-6.788-8.799-3.344-4.55-6.189-8.322-6.239-8.365-.2-.087-.2-.087 5.89 9.362 3.843 5.938 5.09 8.062 5.09 8.322 0 .564-.199.867-.997 1.647-1.348 1.3-1.947 2.774-2.396 5.852-.5 3.424-1.847 5.851-5.69 9.969-2.246 2.427-2.595 2.86-3.144 3.857-.7 1.214-.899 1.907-.999 3.468-.1 1.647.1 2.687.65 4.247.498 1.387 1.047 2.298 2.395 4.075 1.148 1.56 1.847 2.73 1.847 3.164 0 .347.1.347 1.896 0 4.293-.867 7.836-2.34 9.783-4.161 1.198-1.127 1.497-1.734 1.497-3.294 0-.997-.05-1.214-.35-1.82-.498-.954-1.447-1.734-3.493-2.948-2.695-1.604-3.843-2.904-4.143-4.638-.25-1.474.05-2.47 1.548-5.201 1.547-2.817 1.946-3.988 2.196-6.848.15-1.82.399-2.558.998-3.121.649-.607 1.198-.824 2.745-.997 2.546-.304 4.193-.867 5.49-1.95 1.148-.91 1.647-1.821 1.697-3.165l.05-.997-.649-.606C32.641 31.035.15 0 0 0c-.05 0 .748.824 1.697 1.864Zm15.322 61.635c.55-.824.25-1.864-.648-2.384-.849-.477-2.147-.26-2.147.39 0 .173.1.346.4.433.449.217.499.433.15.91-.35.477-.35.91.1 1.214.698.477 1.646.217 2.145-.563ZM37.233 40.7c-1.197.303-2.345 1.43-2.695 2.557-.2.694-.1 1.95.25 2.34.549.607 1.048.78 2.446.78 2.745 0 5.09-1.04 5.34-2.297.25-1.04-.799-2.47-2.246-3.12-.749-.347-2.296-.477-3.095-.26Zm3.195 2.167c.4-.52.25-1.084-.5-1.474-1.347-.737-3.393-.13-3.393.997 0 .564 1.048 1.17 2.046 1.17.649 0 1.547-.346 1.847-.693Z"/>
  </g>
  <defs>
    <clipPath id="a">
      <path fill="#fff" d="M0 0h84v84H0z"/>
    </clipPath>
  </defs>
</svg>
